<?xml version="1.0" standalone="no"?><!DOCTYPE svg PUBLIC "-//W3C//DTD SVG 1.1//EN" "http://www.w3.org/Graphics/SVG/1.1/DTD/svg11.dtd"><svg t="1572759578496" class="icon" viewBox="0 0 1024 1024" version="1.1" xmlns="http://www.w3.org/2000/svg" p-id="2527" xmlns:xlink="http://www.w3.org/1999/xlink" width="200" height="200"><defs><style type="text/css"></style></defs><path d="M512 0A512 512 0 0 0 0 512a512 512 0 0 0 1024 0A512 512 0 0 0 512 0z m0 972.733353a460.733353 460.733353 0 1 1 460.733353-460.733353 461.39982 461.39982 0 0 1-460.733353 460.733353z" p-id="2528"></path><path d="M511.794933 150.313808l-314.264543 181.688996v363.019125l314.46961 181.330129 314.264544-181.688996V331.643937zM249.002103 665.389807V392.189847l237.620907 134.728747 0.512666 275.660759z m262.895364-182.919395l-238.389907-135.190148 238.287373-137.753479 237.313308 136.83068z m26.402323 319.647541l-0.512667-275.301892 237.313308-136.21548v274.481626z" p-id="2529"></path></svg>