<?xml version="1.0" standalone="no"?><!DOCTYPE svg PUBLIC "-//W3C//DTD SVG 1.1//EN" "http://www.w3.org/Graphics/SVG/1.1/DTD/svg11.dtd"><svg t="1572759547038" class="icon" viewBox="0 0 1024 1024" version="1.1" xmlns="http://www.w3.org/2000/svg" p-id="2415" xmlns:xlink="http://www.w3.org/1999/xlink" width="200" height="200"><defs><style type="text/css"></style></defs><path d="M931.2 739.2l59.2-38.4-22.4-54.4-68.8 16c-9.6-12.8-22.4-25.6-35.2-35.2l16-68.8-54.4-22.4-36.8 59.2c-17.6-3.2-33.6-3.2-51.2 0L700.8 536l-54.4 22.4 14.4 68.8c-12.8 9.6-25.6 22.4-35.2 35.2l-67.2-16-22.4 54.4 59.2 38.4c-3.2 17.6-3.2 33.6 0 51.2L536 827.2l22.4 54.4 68.8-14.4c9.6 12.8 22.4 25.6 35.2 35.2l-16 68.8 54.4 22.4 38.4-59.2c16 3.2 33.6 3.2 49.6 0l38.4 59.2 54.4-22.4-16-68.8c12.8-9.6 25.6-22.4 35.2-35.2l68.8 16 22.4-54.4-59.2-36.8c1.6-19.2 1.6-36.8-1.6-52.8zM864 804.8c-22.4 56-86.4 81.6-142.4 57.6C667.2 840 640 776 664 720c22.4-54.4 86.4-81.6 142.4-57.6 54.4 24 81.6 88 57.6 142.4z m-606.4-472h403.2v72H257.6v-72z m0 203.2H536v72H257.6v-72z m0 180.8h201.6v72H257.6v-72z" p-id="2416"></path><path d="M534.4 928H176c-40 0-78.4-41.6-78.4-80V363.2c0-35.2 41.6-41.6 78.4-41.6h108.8c19.2 0 36.8-16 36.8-36.8V174.4c0-32 0-73.6 25.6-80h305.6c40 0 80 41.6 80 81.6v299.2h64V176c0-80-64-144-144-144H321.6c-38.4 0-75.2 35.2-136 99.2-8 8-17.6 17.6-25.6 27.2-9.6 9.6-17.6 17.6-27.2 25.6-62.4 62.4-99.2 99.2-99.2 136v528c0 80 64 144 144 144H536v-64z" p-id="2417"></path></svg>