<?xml version="1.0" standalone="no"?><!DOCTYPE svg PUBLIC "-//W3C//DTD SVG 1.1//EN" "http://www.w3.org/Graphics/SVG/1.1/DTD/svg11.dtd"><svg t="1572714286142" class="icon" viewBox="0 0 1308 1024" version="1.1" xmlns="http://www.w3.org/2000/svg" p-id="2193" xmlns:xlink="http://www.w3.org/1999/xlink" width="255.46875" height="200"><defs><style type="text/css"></style></defs><path d="M505.08094813 32C367.62765312 32 256.74867688 146.39066094 256.74867688 286.851455s110.88337969 254.84485031 248.33227125 254.84485031 248.33006906-114.38845969 248.33006906-254.84485031S642.52543531 32 505.08094813 32z m0 440.24420344c-98.14884281 0-178.29892406-82.68862219-178.29892407-185.39274844s80.14127437-185.39935313 178.29892406-185.39935312 178.29231938 82.68862219 178.29231938 185.39935312-80.15228344 185.39274844-178.29231938 185.39274844zM1216.77729875 223.03125969c23.38187719 0 42.31635469-15.26867437 42.31635469-34.11288281s-18.93447656-34.11068063-42.31635469-34.11068063h-309.02827781c-23.36866687 0-42.31635469 15.27527906-42.31635375 34.11288281s18.94768687 34.11068063 42.31635375 34.11068063zM1216.77729875 455.76240125c23.38187719 0 42.31635469-15.27748125 42.31635469-34.12609219s-18.94548562-34.10847844-42.31635469-34.10847844H889.02150219c-23.36866687 0.00880687-42.30314438 15.28188469-42.30314344 34.10847844s18.93447656 34.12609219 42.30314344 34.12609219zM1216.77729875 688.48033437c23.37086906 0 42.31635469-15.27307781 42.31635469-34.11068062s-18.94548562-34.11068063-42.31635469-34.11068063H963.94038406c-23.36866687 0-42.31635469 15.27087563-42.31635375 34.11068063s18.94768687 34.11068063 42.31635375 34.11068062zM32.12193125 946.51762531c-1.84941375 24.54436594 17.57603813 45.48237469 42.19306031 45.48237469h861.52971094c24.62362687 0 44.03366719-20.93800875 42.19306031-45.48898031-16.10751562-214.24801031-160.32878437-382.43240156-338.55725531-382.43240157H370.68138875c-178.31653781 0-322.45634438 168.15356719-338.5594575 382.43240157z m72.82067813-24.31979531c23.29160812-166.34598562 133.77208031-288.31924406 265.73437593-288.31924406h268.80132094c131.98871625 0 242.46698625 122.01949406 265.74318281 288.31704281z" p-id="2194"></path></svg>