<?xml version="1.0" standalone="no"?><!DOCTYPE svg PUBLIC "-//W3C//DTD SVG 1.1//EN" "http://www.w3.org/Graphics/SVG/1.1/DTD/svg11.dtd"><svg t="1572759527722" class="icon" viewBox="0 0 1024 1024" version="1.1" xmlns="http://www.w3.org/2000/svg" p-id="2304" xmlns:xlink="http://www.w3.org/1999/xlink" width="200" height="200"><defs><style type="text/css"></style></defs><path d="M930.608456 934.439083l-21.402444-86.801597a197.557144 197.557144 0 0 0-71.02254-108.791559 319.995908 319.995908 0 0 0-107.146508-53.934158 548.389358 548.389358 0 0 0-131.85584-22.224969v-35.486091a267.992167 267.992167 0 0 0 162.591427-156.111942 23.819661 23.819661 0 0 0 6.261264 0.956815 66.288823 66.288823 0 0 0 66.4399-66.03703v-27.69728a66.389541 66.389541 0 0 0-55.008477-65.097001v-47.505031a263.661319 263.661319 0 0 0-78.324551-188.00578 268.982554 268.982554 0 0 0-378.378417 0.117504 263.325595 263.325595 0 0 0-78.324551 188.005779v47.488246a66.221679 66.221679 0 0 0-55.008476 65.097001v27.69728a66.288823 66.288823 0 0 0 66.456685 66.03703 21.268154 21.268154 0 0 0 6.261264-0.940029 268.025739 268.025739 0 0 0 162.591427 156.111942v35.502877a540.969844 540.969844 0 0 0-131.755122 22.224969 321.842394 321.842394 0 0 0-107.146508 53.917372 197.607503 197.607503 0 0 0-71.02254 108.808344l-21.503161 86.784811a34.898573 34.898573 0 0 0 6.999858 30.433436 108.556551 108.556551 0 0 0 58.751806 29.812345 699.985804 699.985804 0 0 0 94.338614 16.416933A2348.779703 2348.779703 0 0 0 511.926299 1023.960049a2348.678986 2348.678986 0 0 0 258.507947-12.757535 699.985804 699.985804 0 0 0 94.338614-16.416934 108.304758 108.304758 0 0 0 58.751806-29.812345 34.898573 34.898573 0 0 0 7.201293-30.534152zM460.342214 719.99499a156.69946 156.69946 0 0 0 103.235316 0 126.635321 126.635321 0 0 0 31.255961-13.059687 492.491211 492.491211 0 0 1 61.26974 6.210905c-24.172172 34.965718-75.151953 99.206621-144.244077 133.651966-69.10891-34.445345-120.088692-98.686248-144.260863-133.651966a514.481173 514.481173 0 0 1 61.370458-6.210905 129.807919 129.807919 0 0 0 31.373465 13.059687zM790.074136 378.428776v27.69728a21.822099 21.822099 0 0 1-15.476905 20.848498 264.28241 264.28241 0 0 0 4.868007-51.080499v-15.997277a21.486375 21.486375 0 0 1 10.608898 18.464853zM511.926299 44.231717a222.568628 222.568628 0 0 1 222.988284 221.57824V334.045983a223.256863 223.256863 0 0 1-139.896444-104.796436 22.342473 22.342473 0 0 0-38.608329 0 224.112961 224.112961 0 0 1-267.522153 98.686248v-62.109052A222.568628 222.568628 0 0 1 511.926299 44.231717zM233.812036 406.025339v-27.69728a21.989962 21.989962 0 0 1 10.491394-18.649502v16.014064a273.263043 273.263043 0 0 0 4.868006 51.080498 21.822099 21.822099 0 0 1-15.3594-20.74778z m55.109194-30.215215v-1.376471a268.478968 268.478968 0 0 0 286.910248-94.3554 272.171938 272.171938 0 0 0 63.166585 59.288965 267.555725 267.555725 0 0 0 96.034023 40.018373 223.089001 223.089001 0 0 1-446.110856-3.575467zM511.926299 641.737585a273.783416 273.783416 0 0 0 42.821674-3.357246v38.020811a117.134315 117.134315 0 0 1-85.609775 0V638.380339a273.615554 273.615554 0 0 0 42.821674 3.357246z m252.246683 325.55215A2297.195618 2297.195618 0 0 1 511.926299 979.610828a2322.509253 2322.509253 0 0 1-252.246683-12.321093c-87.758412-10.071738-114.465304-22.862846-121.7841-27.69728l20.025972-81.413217a154.131167 154.131167 0 0 1 55.646354-84.887966 277.744967 277.744967 0 0 1 92.324267-46.145348c5.035869-1.577906 9.954235-2.93759 14.939745-4.314061 21.301726 33.807468 85.744064 125.225278 181.862019 168.416249a23.60144 23.60144 0 0 0 9.232426 1.997561 21.620665 21.620665 0 0 0 9.215641-1.997561c96.134741-43.190971 160.577079-134.709498 181.878805-168.416249 5.035869 1.275754 9.971021 2.736156 14.939745 4.314061a275.81455 275.81455 0 0 1 92.324267 46.145348 154.097594 154.097594 0 0 1 55.629567 84.887966l20.042759 81.413217c-7.318796 5.035869-34.025689 17.591969-121.784101 27.69728z m0 0" p-id="2305"></path></svg>